<svg width="152" height="19" viewBox="0 0 152 19" fill="none" xmlns="http://www.w3.org/2000/svg">
<path d="M1.28 18C1.104 18 0.96 17.944 0.848 17.832C0.736 17.72 0.68 17.576 0.68 17.4V1.8C0.68 1.624 0.736 1.48 0.848 1.368C0.96 1.256 1.104 1.2 1.28 1.2H8.6C9.976 1.2 11.104 1.392 11.984 1.776C12.864 2.16 13.512 2.712 13.928 3.432C14.36 4.136 14.576 4.976 14.576 5.952C14.576 6.528 14.464 7.04 14.24 7.488C14.032 7.92 13.768 8.28 13.448 8.568C13.144 8.856 12.856 9.064 12.584 9.192C13.192 9.48 13.728 9.952 14.192 10.608C14.672 11.264 14.912 12.032 14.912 12.912C14.912 13.968 14.672 14.88 14.192 15.648C13.728 16.4 13.04 16.984 12.128 17.4C11.232 17.8 10.128 18 8.816 18H1.28ZM4.976 14.88H8.336C9.024 14.88 9.544 14.68 9.896 14.28C10.248 13.88 10.424 13.424 10.424 12.912C10.424 12.352 10.24 11.88 9.872 11.496C9.52 11.112 9.008 10.92 8.336 10.92H4.976V14.88ZM4.976 7.872H8.12C8.776 7.872 9.264 7.704 9.584 7.368C9.92 7.032 10.088 6.6 10.088 6.072C10.088 5.56 9.92 5.144 9.584 4.824C9.264 4.488 8.776 4.32 8.12 4.32H4.976V7.872ZM17.7811 18C17.6051 18 17.4611 17.944 17.3491 17.832C17.2371 17.72 17.1811 17.576 17.1811 17.4V6.12C17.1811 5.96 17.2371 5.824 17.3491 5.712C17.4611 5.584 17.6051 5.52 17.7811 5.52H20.5411C20.7171 5.52 20.8611 5.584 20.9731 5.712C21.0851 5.824 21.1411 5.96 21.1411 6.12V7.08C21.5731 6.584 22.0851 6.2 22.6771 5.928C23.2851 5.656 23.9651 5.52 24.7171 5.52H25.7731C25.9331 5.52 26.0691 5.576 26.1811 5.688C26.3091 5.8 26.3731 5.944 26.3731 6.12V8.592C26.3731 8.752 26.3091 8.896 26.1811 9.024C26.0691 9.136 25.9331 9.192 25.7731 9.192H23.4451C22.7891 9.192 22.2771 9.376 21.9091 9.744C21.5571 10.096 21.3811 10.6 21.3811 11.256V17.4C21.3811 17.576 21.3171 17.72 21.1891 17.832C21.0771 17.944 20.9331 18 20.7571 18H17.7811ZM31.4793 18.24C30.6153 18.24 29.8393 18.08 29.1513 17.76C28.4793 17.424 27.9433 16.976 27.5433 16.416C27.1433 15.856 26.9433 15.224 26.9433 14.52C26.9433 13.384 27.4073 12.488 28.3353 11.832C29.2633 11.16 30.4953 10.704 32.0313 10.464L35.0313 10.008V9.672C35.0313 9.096 34.9113 8.656 34.6713 8.352C34.4313 8.048 33.9913 7.896 33.3513 7.896C32.9033 7.896 32.5353 7.984 32.2473 8.16C31.9753 8.336 31.7593 8.576 31.5993 8.88C31.4553 9.088 31.2553 9.192 30.9993 9.192H28.3113C28.1353 9.192 27.9993 9.144 27.9033 9.048C27.8073 8.936 27.7673 8.808 27.7833 8.664C27.7833 8.376 27.8873 8.048 28.0953 7.68C28.3193 7.296 28.6553 6.92 29.1033 6.552C29.5513 6.184 30.1273 5.88 30.8313 5.64C31.5353 5.4 32.3833 5.28 33.3753 5.28C34.4153 5.28 35.3033 5.4 36.0393 5.64C36.7753 5.88 37.3673 6.216 37.8153 6.648C38.2793 7.08 38.6233 7.592 38.8473 8.184C39.0713 8.76 39.1833 9.4 39.1833 10.104V17.4C39.1833 17.576 39.1193 17.72 38.9913 17.832C38.8793 17.944 38.7433 18 38.5833 18H35.7993C35.6233 18 35.4793 17.944 35.3673 17.832C35.2553 17.72 35.1993 17.576 35.1993 17.4V16.56C34.9913 16.864 34.7113 17.144 34.3593 17.4C34.0073 17.656 33.5913 17.856 33.1113 18C32.6473 18.16 32.1033 18.24 31.4793 18.24ZM32.6073 15.504C33.0713 15.504 33.4873 15.408 33.8553 15.216C34.2393 15.008 34.5353 14.696 34.7433 14.28C34.9673 13.848 35.0793 13.312 35.0793 12.672V12.336L33.0393 12.696C32.2873 12.824 31.7353 13.024 31.3833 13.296C31.0473 13.552 30.8793 13.856 30.8793 14.208C30.8793 14.48 30.9593 14.712 31.1193 14.904C31.2793 15.096 31.4873 15.248 31.7433 15.36C31.9993 15.456 32.2873 15.504 32.6073 15.504ZM42.3582 18C42.1822 18 42.0382 17.944 41.9262 17.832C41.8142 17.72 41.7582 17.576 41.7582 17.4V6.12C41.7582 5.944 41.8142 5.8 41.9262 5.688C42.0382 5.576 42.1822 5.52 42.3582 5.52H45.1902C45.3502 5.52 45.4862 5.576 45.5982 5.688C45.7262 5.8 45.7902 5.944 45.7902 6.12V17.4C45.7902 17.576 45.7262 17.72 45.5982 17.832C45.4862 17.944 45.3502 18 45.1902 18H42.3582ZM42.3342 3.72C42.1582 3.72 42.0142 3.664 41.9022 3.552C41.7902 3.44 41.7342 3.296 41.7342 3.12V0.983999C41.7342 0.807999 41.7902 0.663999 41.9022 0.551999C42.0142 0.423999 42.1582 0.36 42.3342 0.36H45.1902C45.3662 0.36 45.5102 0.423999 45.6222 0.551999C45.7502 0.663999 45.8142 0.807999 45.8142 0.983999V3.12C45.8142 3.296 45.7502 3.44 45.6222 3.552C45.5102 3.664 45.3662 3.72 45.1902 3.72H42.3342ZM49.8186 18C49.6426 18 49.4986 17.944 49.3866 17.832C49.2746 17.72 49.2186 17.576 49.2186 17.4V6.12C49.2186 5.944 49.2746 5.8 49.3866 5.688C49.4986 5.576 49.6426 5.52 49.8186 5.52H52.5786C52.7546 5.52 52.8986 5.576 53.0106 5.688C53.1226 5.8 53.1786 5.944 53.1786 6.12V7.032C53.5946 6.536 54.1386 6.12 54.8106 5.784C55.4826 5.448 56.2746 5.28 57.1866 5.28C58.1146 5.28 58.9306 5.488 59.6346 5.904C60.3546 6.32 60.9146 6.936 61.3146 7.752C61.7306 8.552 61.9386 9.536 61.9386 10.704V17.4C61.9386 17.576 61.8746 17.72 61.7466 17.832C61.6346 17.944 61.4986 18 61.3386 18H58.3146C58.1546 18 58.0106 17.944 57.8826 17.832C57.7706 17.72 57.7146 17.576 57.7146 17.4V10.848C57.7146 10.096 57.5306 9.52 57.1626 9.12C56.8106 8.704 56.2826 8.496 55.5786 8.496C54.9226 8.496 54.3946 8.704 53.9946 9.12C53.6106 9.52 53.4186 10.096 53.4186 10.848V17.4C53.4186 17.576 53.3546 17.72 53.2266 17.832C53.1146 17.944 52.9786 18 52.8186 18H49.8186ZM67.7528 18C67.5128 18 67.3368 17.944 67.2248 17.832C67.1128 17.72 67.0248 17.576 66.9608 17.4L63.5048 6.288C63.4728 6.208 63.4568 6.128 63.4568 6.048C63.4568 5.904 63.5128 5.784 63.6248 5.688C63.7368 5.576 63.8648 5.52 64.0088 5.52H66.4808C66.6888 5.52 66.8488 5.576 66.9608 5.688C67.0888 5.8 67.1688 5.912 67.2008 6.024L69.2168 12.888L71.3768 6.048C71.4088 5.936 71.4808 5.824 71.5928 5.712C71.7208 5.584 71.8968 5.52 72.1208 5.52H73.7048C73.9288 5.52 74.0968 5.584 74.2088 5.712C74.3368 5.824 74.4168 5.936 74.4488 6.048L76.6088 12.888L78.6248 6.024C78.6568 5.912 78.7288 5.8 78.8408 5.688C78.9688 5.576 79.1368 5.52 79.3448 5.52H81.8168C81.9608 5.52 82.0808 5.576 82.1768 5.688C82.2888 5.784 82.3448 5.904 82.3448 6.048C82.3448 6.128 82.3368 6.208 82.3208 6.288L78.8648 17.4C78.8168 17.576 78.7288 17.72 78.6008 17.832C78.4888 17.944 78.3128 18 78.0728 18H75.9128C75.6888 18 75.5128 17.944 75.3848 17.832C75.2568 17.72 75.1688 17.576 75.1208 17.4L72.9128 10.824L70.7048 17.4C70.6568 17.576 70.5688 17.72 70.4408 17.832C70.3128 17.944 70.1368 18 69.9128 18H67.7528ZM87.5709 18.24C86.7069 18.24 85.9309 18.08 85.2429 17.76C84.5709 17.424 84.0349 16.976 83.6349 16.416C83.2349 15.856 83.0349 15.224 83.0349 14.52C83.0349 13.384 83.4989 12.488 84.4269 11.832C85.3549 11.16 86.5869 10.704 88.1229 10.464L91.1229 10.008V9.672C91.1229 9.096 91.0029 8.656 90.7629 8.352C90.5229 8.048 90.0829 7.896 89.4429 7.896C88.9949 7.896 88.6269 7.984 88.3389 8.16C88.0669 8.336 87.8509 8.576 87.6909 8.88C87.5469 9.088 87.3469 9.192 87.0909 9.192H84.4029C84.2269 9.192 84.0909 9.144 83.9949 9.048C83.8989 8.936 83.8589 8.808 83.8749 8.664C83.8749 8.376 83.9789 8.048 84.1869 7.68C84.4109 7.296 84.7469 6.92 85.1949 6.552C85.6429 6.184 86.2189 5.88 86.9229 5.64C87.6269 5.4 88.4749 5.28 89.4669 5.28C90.5069 5.28 91.3949 5.4 92.1309 5.64C92.8669 5.88 93.4589 6.216 93.9069 6.648C94.3709 7.08 94.7149 7.592 94.9389 8.184C95.1629 8.76 95.2749 9.4 95.2749 10.104V17.4C95.2749 17.576 95.2109 17.72 95.0829 17.832C94.9709 17.944 94.8349 18 94.6749 18H91.8909C91.7149 18 91.5709 17.944 91.4589 17.832C91.3469 17.72 91.2909 17.576 91.2909 17.4V16.56C91.0829 16.864 90.8029 17.144 90.4509 17.4C90.0989 17.656 89.6829 17.856 89.2029 18C88.7389 18.16 88.1949 18.24 87.5709 18.24ZM88.6989 15.504C89.1629 15.504 89.5789 15.408 89.9469 15.216C90.3309 15.008 90.6269 14.696 90.8349 14.28C91.0589 13.848 91.1709 13.312 91.1709 12.672V12.336L89.1309 12.696C88.3789 12.824 87.8269 13.024 87.4749 13.296C87.1389 13.552 86.9709 13.856 86.9709 14.208C86.9709 14.48 87.0509 14.712 87.2109 14.904C87.3709 15.096 87.5789 15.248 87.8349 15.36C88.0909 15.456 88.3789 15.504 88.6989 15.504ZM101.938 18C101.698 18 101.522 17.944 101.41 17.832C101.298 17.704 101.202 17.56 101.122 17.4L96.5863 6.264C96.5543 6.2 96.5383 6.128 96.5383 6.048C96.5383 5.904 96.5863 5.784 96.6823 5.688C96.7943 5.576 96.9303 5.52 97.0903 5.52H99.8023C100.01 5.52 100.17 5.576 100.282 5.688C100.394 5.8 100.466 5.912 100.498 6.024L103.21 13.392L105.946 6.024C105.978 5.912 106.05 5.8 106.162 5.688C106.274 5.576 106.434 5.52 106.642 5.52H109.354C109.498 5.52 109.626 5.576 109.738 5.688C109.85 5.784 109.906 5.904 109.906 6.048C109.906 6.128 109.89 6.2 109.858 6.264L105.322 17.4C105.258 17.56 105.162 17.704 105.034 17.832C104.922 17.944 104.738 18 104.482 18H101.938ZM116.93 18.24C115.042 18.24 113.538 17.728 112.418 16.704C111.298 15.68 110.714 14.16 110.666 12.144C110.666 12.032 110.666 11.888 110.666 11.712C110.666 11.536 110.666 11.4 110.666 11.304C110.714 10.04 110.994 8.96 111.506 8.064C112.034 7.152 112.754 6.464 113.666 6C114.594 5.52 115.674 5.28 116.906 5.28C118.314 5.28 119.474 5.56 120.386 6.12C121.314 6.68 122.01 7.44 122.474 8.4C122.938 9.36 123.17 10.456 123.17 11.688V12.264C123.17 12.44 123.106 12.584 122.978 12.696C122.866 12.808 122.73 12.864 122.57 12.864H114.89C114.89 12.88 114.89 12.904 114.89 12.936C114.89 12.968 114.89 13 114.89 13.032C114.906 13.496 114.986 13.92 115.13 14.304C115.274 14.688 115.498 14.992 115.802 15.216C116.106 15.44 116.474 15.552 116.906 15.552C117.226 15.552 117.49 15.504 117.698 15.408C117.922 15.296 118.106 15.176 118.25 15.048C118.394 14.904 118.506 14.784 118.586 14.688C118.73 14.528 118.842 14.432 118.922 14.4C119.018 14.352 119.162 14.328 119.354 14.328H122.33C122.49 14.328 122.618 14.376 122.714 14.472C122.826 14.552 122.874 14.672 122.858 14.832C122.842 15.104 122.706 15.432 122.45 15.816C122.194 16.2 121.818 16.584 121.322 16.968C120.842 17.336 120.234 17.64 119.498 17.88C118.762 18.12 117.906 18.24 116.93 18.24ZM114.89 10.488H118.946V10.44C118.946 9.928 118.866 9.48 118.706 9.096C118.562 8.712 118.33 8.416 118.01 8.208C117.706 8 117.338 7.896 116.906 7.896C116.474 7.896 116.106 8 115.802 8.208C115.514 8.416 115.29 8.712 115.13 9.096C114.97 9.48 114.89 9.928 114.89 10.44V10.488ZM125.766 18C125.59 18 125.446 17.944 125.334 17.832C125.222 17.72 125.166 17.576 125.166 17.4V14.352C125.166 14.192 125.222 14.056 125.334 13.944C125.446 13.816 125.59 13.752 125.766 13.752H128.79C128.966 13.752 129.11 13.816 129.222 13.944C129.35 14.056 129.414 14.192 129.414 14.352V17.4C129.414 17.576 129.35 17.72 129.222 17.832C129.11 17.944 128.966 18 128.79 18H125.766ZM132.573 18C132.397 18 132.253 17.944 132.141 17.832C132.029 17.72 131.973 17.576 131.973 17.4V6.12C131.973 5.944 132.029 5.8 132.141 5.688C132.253 5.576 132.397 5.52 132.573 5.52H135.405C135.565 5.52 135.701 5.576 135.813 5.688C135.941 5.8 136.005 5.944 136.005 6.12V17.4C136.005 17.576 135.941 17.72 135.813 17.832C135.701 17.944 135.565 18 135.405 18H132.573ZM132.549 3.72C132.373 3.72 132.229 3.664 132.117 3.552C132.005 3.44 131.949 3.296 131.949 3.12V0.983999C131.949 0.807999 132.005 0.663999 132.117 0.551999C132.229 0.423999 132.373 0.36 132.549 0.36H135.405C135.581 0.36 135.725 0.423999 135.837 0.551999C135.965 0.663999 136.029 0.807999 136.029 0.983999V3.12C136.029 3.296 135.965 3.44 135.837 3.552C135.725 3.664 135.581 3.72 135.405 3.72H132.549ZM144.705 18.24C143.361 18.24 142.225 18.024 141.297 17.592C140.385 17.16 139.681 16.544 139.185 15.744C138.705 14.928 138.433 13.96 138.369 12.84C138.353 12.52 138.345 12.16 138.345 11.76C138.345 11.344 138.353 10.984 138.369 10.68C138.433 9.544 138.721 8.576 139.233 7.776C139.745 6.976 140.457 6.36 141.369 5.928C142.297 5.496 143.409 5.28 144.705 5.28C146.017 5.28 147.129 5.496 148.041 5.928C148.969 6.36 149.689 6.976 150.201 7.776C150.713 8.576 151.001 9.544 151.065 10.68C151.081 10.984 151.089 11.344 151.089 11.76C151.089 12.16 151.081 12.52 151.065 12.84C151.001 13.96 150.721 14.928 150.225 15.744C149.745 16.544 149.041 17.16 148.113 17.592C147.201 18.024 146.065 18.24 144.705 18.24ZM144.705 15.312C145.425 15.312 145.945 15.096 146.265 14.664C146.601 14.232 146.793 13.584 146.841 12.72C146.857 12.48 146.865 12.16 146.865 11.76C146.865 11.36 146.857 11.04 146.841 10.8C146.793 9.952 146.601 9.312 146.265 8.88C145.945 8.432 145.425 8.208 144.705 8.208C144.001 8.208 143.481 8.432 143.145 8.88C142.809 9.312 142.625 9.952 142.593 10.8C142.577 11.04 142.569 11.36 142.569 11.76C142.569 12.16 142.577 12.48 142.593 12.72C142.625 13.584 142.809 14.232 143.145 14.664C143.481 15.096 144.001 15.312 144.705 15.312Z" fill="#161C2D"/>
</svg>
