<svg width="128" height="24" viewBox="0 0 128 24" fill="none" xmlns="http://www.w3.org/2000/svg">
<path fill-rule="evenodd" clip-rule="evenodd" d="M110.122 20.59L116 17L121.878 20.59L120.28 13.89L125.511 9.41L118.645 8.86L116 2.5L113.355 8.86L106.49 9.41L111.72 13.89L110.122 20.59ZM118.817 16.376L116 14.656V7.708L117.268 10.755L120.558 11.019L118.051 13.166L118.817 16.376Z" fill="#FFAC4D"/>
<path d="M12.0002 17L6.12223 20.59L7.72023 13.89L2.49023 9.41L9.35523 8.86L12.0002 2.5L14.6452 8.86L21.5112 9.41L16.2802 13.89L17.8782 20.59L12.0002 17Z" fill="#FFAC4D"/>
<path d="M38.0002 17L32.1222 20.59L33.7202 13.89L28.4902 9.41L35.3552 8.86L38.0002 2.5L40.6452 8.86L47.5112 9.41L42.2802 13.89L43.8782 20.59L38.0002 17Z" fill="#FFAC4D"/>
<path d="M64.0002 17L58.1222 20.59L59.7202 13.89L54.4902 9.41L61.3552 8.86L64.0002 2.5L66.6452 8.86L73.5112 9.41L68.2802 13.89L69.8782 20.59L64.0002 17Z" fill="#FFAC4D"/>
<path d="M90.0002 17L84.1222 20.59L85.7202 13.89L80.4902 9.41L87.3552 8.86L90.0002 2.5L92.6452 8.86L99.5112 9.41L94.2802 13.89L95.8782 20.59L90.0002 17Z" fill="#FFAC4D"/>
</svg>
